<svg width="29" height="31" viewBox="0 0 29 31" fill="none" xmlns="http://www.w3.org/2000/svg">
<path d="M14.5006 1.54999C12.4931 1.54999 10.5307 2.18633 8.86155 3.37854C7.19239 4.57076 5.89144 6.26529 5.12321 8.24787C4.35498 10.2305 4.15398 12.412 4.54562 14.5167C4.93726 16.6214 5.90395 18.5547 7.32346 20.0721C8.74296 21.5895 10.5515 22.6229 12.5204 23.0415C14.4893 23.4602 16.5302 23.2453 18.3848 22.4241C20.2395 21.6029 21.8247 20.2122 22.94 18.4279C24.0553 16.6437 24.6506 14.5459 24.6506 12.4C24.6506 9.52239 23.5812 6.76265 21.6777 4.72788C19.7742 2.69311 17.1925 1.54999 14.5006 1.54999ZM16.2986 15.1125L14.5006 14.1825L12.7026 15.1125L13.0506 13.144L11.6006 11.7645L13.6016 11.47L14.5006 9.68749L15.3996 11.47L17.4006 11.7645L15.9506 13.144L16.2986 15.1125Z" fill="#DD9B0B"/>
<path d="M5.4957 17.9335L1.4502 24.118L5.8437 25.513L8.56969 29.45L12.7457 23.0795" stroke="white" stroke-width="2" stroke-linecap="round" stroke-linejoin="round"/>
<path d="M23.5049 17.9335L27.5504 24.118L23.1569 25.513L20.4309 29.45L16.2549 23.0795" stroke="white" stroke-width="2" stroke-linecap="round" stroke-linejoin="round"/>
<path d="M15.3996 11.47L17.4006 11.7645L15.9506 13.144L16.2986 15.1125L14.5006 14.1825L12.7026 15.1125L13.0506 13.144L11.6006 11.7645L13.6016 11.47L14.5006 9.68749L15.3996 11.47ZM14.5006 1.54999C12.4931 1.54999 10.5307 2.18633 8.86155 3.37854C7.19239 4.57076 5.89144 6.26529 5.12321 8.24787C4.35498 10.2305 4.15398 12.412 4.54562 14.5167C4.93726 16.6214 5.90395 18.5547 7.32346 20.0721C8.74296 21.5895 10.5515 22.6229 12.5204 23.0415C14.4893 23.4602 16.5302 23.2453 18.3848 22.4241C20.2395 21.6029 21.8247 20.2122 22.94 18.4279C24.0553 16.6437 24.6506 14.5459 24.6506 12.4C24.6506 9.52239 23.5812 6.76265 21.6777 4.72788C19.7742 2.69311 17.1925 1.54999 14.5006 1.54999Z" stroke="white" stroke-width="2" stroke-linecap="round" stroke-linejoin="round"/>
</svg>
