<svg width="36" height="32" viewBox="0 0 36 32" fill="none" xmlns="http://www.w3.org/2000/svg">
<path d="M32.0247 23.3398C30.9003 22.3613 29.5865 21.5627 28.1435 20.9805C30.1784 19.5469 31.4767 17.3594 31.4767 14.9063C31.4767 10.5781 27.3259 7.02734 22.3485 7.09375C17.4476 7.16016 13.4989 10.6328 13.4989 14.9063C13.4989 17.3594 14.8017 19.5469 16.8321 20.9805C15.3888 21.5622 14.0749 22.3609 12.9509 23.3398C10.4982 25.4766 9.10558 28.2969 9.01574 31.3047C9.01454 31.3464 9.02295 31.3879 9.04047 31.4267C9.05799 31.4655 9.08427 31.5009 9.11777 31.5307C9.15126 31.5606 9.19128 31.5843 9.23548 31.6005C9.27968 31.6167 9.32715 31.625 9.37511 31.625H11.8907C12.0839 31.625 12.2456 31.4922 12.2501 31.3242C12.3355 29.0586 13.3911 26.9375 15.2464 25.3281C16.1958 24.4982 17.325 23.8402 18.5688 23.3923C19.8125 22.9444 21.1461 22.7155 22.4923 22.7188C25.228 22.7188 27.8021 23.6445 29.7382 25.3281C31.589 26.9375 32.6446 29.0586 32.7345 31.3242C32.739 31.4922 32.9007 31.625 33.0939 31.625H35.6095C35.6574 31.625 35.7049 31.6167 35.7491 31.6005C35.7933 31.5843 35.8333 31.5606 35.8668 31.5307C35.9003 31.5009 35.9266 31.4655 35.9441 31.4267C35.9617 31.3879 35.9701 31.3464 35.9689 31.3047C35.879 28.2969 34.4864 25.4766 32.0247 23.3398ZM22.4923 19.9063C20.956 19.9063 19.5095 19.3867 18.4269 18.4414C17.8836 17.9727 17.4544 17.4136 17.165 16.7975C16.8755 16.1814 16.7318 15.5209 16.7423 14.8555C16.7558 13.5742 17.3443 12.3359 18.373 11.418C19.4511 10.457 20.8931 9.92188 22.4339 9.90625C23.9568 9.89453 25.4347 10.4102 26.5218 11.3359C27.6359 12.2852 28.2468 13.5547 28.2468 14.9063C28.2468 16.2422 27.6493 17.4961 26.5622 18.4414C26.0289 18.9074 25.3946 19.2768 24.696 19.5282C23.9974 19.7797 23.2484 19.9082 22.4923 19.9063ZM11.2394 15.9375C11.1989 15.5977 11.1765 15.2539 11.1765 14.9063C11.1765 14.2852 11.2439 13.6797 11.3696 13.0898C11.4011 12.9492 11.3157 12.8047 11.1675 12.7461C10.5566 12.5078 9.99503 12.1797 9.50988 11.7656C8.9382 11.2836 8.48835 10.7033 8.18902 10.0617C7.88969 9.42002 7.74746 8.73117 7.7714 8.03906C7.81183 6.78516 8.39132 5.59375 9.40207 4.69531C10.5116 3.70703 12.003 3.16797 13.5888 3.18359C15.0218 3.19531 16.4054 3.67578 17.4521 4.52734C17.8069 4.81641 18.1124 5.13672 18.3685 5.48047C18.4583 5.60156 18.6335 5.65234 18.7862 5.60547C19.5769 5.36719 20.4124 5.19922 21.2704 5.12109C21.522 5.09766 21.6657 4.86328 21.5534 4.66797C20.0935 2.15625 17.1107 0.421876 13.6607 0.375001C8.67882 0.308595 4.52804 3.85938 4.52804 8.18359C4.52804 10.6367 5.82628 12.8242 7.86124 14.2578C6.43273 14.832 5.11652 15.625 3.9755 16.6172C1.51378 18.7539 0.121206 21.5742 0.0313623 24.5859C0.0301633 24.6276 0.0385728 24.6691 0.0560955 24.7079C0.0736183 24.7467 0.0998995 24.7821 0.133391 24.812C0.166882 24.8418 0.206906 24.8655 0.251103 24.8817C0.295301 24.8979 0.342778 24.9063 0.390737 24.9062H2.91085C3.10402 24.9062 3.26574 24.7734 3.27023 24.6055C3.35558 22.3398 4.41125 20.2188 6.26652 18.6094C7.58722 17.4609 9.20441 16.6641 10.9698 16.2773C11.145 16.2383 11.2618 16.0938 11.2394 15.9375Z" fill="white"/>
</svg>
